<?xml version="1.0" encoding="UTF-8" standalone="no"?>
<!-- Created with Inkscape (http://www.inkscape.org/) -->

<svg
   xmlns:dc="http://purl.org/dc/elements/1.1/"
   xmlns:cc="http://creativecommons.org/ns#"
   xmlns:rdf="http://www.w3.org/1999/02/22-rdf-syntax-ns#"
   xmlns:svg="http://www.w3.org/2000/svg"
   xmlns="http://www.w3.org/2000/svg"
   xmlns:sodipodi="http://sodipodi.sourceforge.net/DTD/sodipodi-0.dtd"
   xmlns:inkscape="http://www.inkscape.org/namespaces/inkscape"
   width="640px"
   height="480px"
   id="svg5166"
   version="1.1"
   inkscape:version="0.48.1 "
   sodipodi:docname="Balloons_black_white_line_art_coloring_book_colouring.svg">
  <title
     id="title3468">balloons</title>
  <defs
     id="defs5168">
    <filter
       color-interpolation-filters="sRGB"
       inkscape:collect="always"
       id="filter4260">
      <feGaussianBlur
         inkscape:collect="always"
         stdDeviation="3.0416951"
         id="feGaussianBlur4262" />
    </filter>
  </defs>
  <sodipodi:namedview
     id="base"
     pagecolor="#ffffff"
     bordercolor="#666666"
     borderopacity="1.0"
     inkscape:pageopacity="0.0"
     inkscape:pageshadow="2"
     inkscape:zoom="0.77472527"
     inkscape:cx="249.08037"
     inkscape:cy="240"
     inkscape:current-layer="layer1"
     inkscape:document-units="px"
     showgrid="false"
     inkscape:window-width="1073"
     inkscape:window-height="670"
     inkscape:window-x="366"
     inkscape:window-y="256"
     inkscape:window-maximized="0" />
  <metadata
     id="metadata5171">
    <rdf:RDF>
      <cc:Work
         rdf:about="">
        <dc:format>image/svg+xml</dc:format>
        <dc:type
           rdf:resource="http://purl.org/dc/dcmitype/StillImage" />
        <dc:title>balloons</dc:title>
        <cc:license
           rdf:resource="http://creativecommons.org/licenses/publicdomain/" />
        <dc:subject>
          <rdf:Bag>
            <rdf:li>balloons</rdf:li>
            <rdf:li>party</rdf:li>
            <rdf:li>celebration</rdf:li>
            <rdf:li>party goods</rdf:li>
            <rdf:li>infalatable</rdf:li>
          </rdf:Bag>
        </dc:subject>
        <dc:date>2011-05-17</dc:date>
      </cc:Work>
      <cc:License
         rdf:about="http://creativecommons.org/licenses/publicdomain/">
        <cc:permits
           rdf:resource="http://creativecommons.org/ns#Reproduction" />
        <cc:permits
           rdf:resource="http://creativecommons.org/ns#Distribution" />
        <cc:permits
           rdf:resource="http://creativecommons.org/ns#DerivativeWorks" />
      </cc:License>
    </rdf:RDF>
  </metadata>
  <g
     id="layer1"
     inkscape:label="Layer 1"
     inkscape:groupmode="layer">
    <g
       style="fill:#ffffff;stroke:#000000;stroke-width:2.04121232;stroke-miterlimit:4;stroke-opacity:1;stroke-dasharray:none"
       id="g4003"
       transform="matrix(0.09954401,-0.37114053,0.35680054,0.09551106,-189.5698,526.97535)">
      <g
         style="fill:#ffffff;stroke:#000000;stroke-width:2.04121232;stroke-miterlimit:4;stroke-opacity:1;stroke-dasharray:none"
         transform="translate(-120,-194.28571)"
         id="g3979">
        <path
           inkscape:connector-curvature="0"
           style="fill:#ffffff;fill-opacity:1;stroke:#000000;stroke-width:2.04121232;stroke-linecap:square;stroke-linejoin:bevel;stroke-miterlimit:4;stroke-opacity:1;stroke-dasharray:none;stroke-dashoffset:0"
           d="m 719.57921,758.12405 c -66.7944,0.50406 -134.01906,29.21668 -181.46181,82.45241 -34.07737,38.3327 -55.78281,90.85788 -57.55068,145.11819 -1.6688,45.17455 9.14426,90.15645 27.43675,130.19695 24.18657,53.1169 53.53294,103.2569 87.01754,149.6003 18.93412,25.7498 39.85242,50.4088 65.49223,67.8459 17.69316,11.7948 38.08227,19.5835 58.86387,18.6804 21.19388,-0.7236 41.48611,-9.8056 59.26842,-22.3222 29.72628,-20.7912 53.63795,-50.0703 76.10422,-79.7962 29.1018,-38.9346 55.2457,-80.6984 77.4652,-124.972 17.9694,-36.4032 31.0019,-76.6423 33.2371,-118.4221 1.9339,-37.94198 -5.3747,-76.38198 -20.9269,-110.16049 -15.6812,-33.76502 -39.3547,-62.46562 -66.8947,-84.56337 -39.79287,-31.89765 -87.9855,-49.66577 -136.68961,-53.06169 -7.11332,-0.47812 -14.23505,-0.73561 -21.36163,-0.5961 z"
           id="path3932" />
        <path
           id="path3944"
           d="m 719.57921,758.12405 c -66.7944,0.50406 -134.01906,29.21668 -181.46181,82.45241 -34.07737,38.3327 -55.78281,90.85788 -57.55068,145.11819 -1.6688,45.17455 9.14426,90.15645 27.43675,130.19695 24.18657,53.1169 53.53294,103.2569 87.01754,149.6003 18.93412,25.7498 39.85242,50.4088 65.49223,67.8459 17.69316,11.7948 38.08227,19.5835 58.86387,18.6804 21.19388,-0.7236 41.48611,-9.8056 59.26842,-22.3222 29.72628,-20.7912 53.63795,-50.0703 76.10422,-79.7962 29.1018,-38.9346 55.2457,-80.6984 77.4652,-124.972 17.9694,-36.4032 31.0019,-76.6423 33.2371,-118.4221 1.9339,-37.94198 -5.3747,-76.38198 -20.9269,-110.16049 -15.6812,-33.76502 -39.3547,-62.46562 -66.8947,-84.56337 -39.79287,-31.89765 -87.9855,-49.66577 -136.68961,-53.06169 -7.11332,-0.47812 -14.23505,-0.73561 -21.36163,-0.5961 z"
           style="fill:#ffffff;fill-opacity:1;stroke:#000000;stroke-width:2.04121232;stroke-linecap:square;stroke-linejoin:bevel;stroke-miterlimit:4;stroke-opacity:1;stroke-dasharray:none;stroke-dashoffset:0"
           inkscape:connector-curvature="0" />
      </g>
    </g>
    <path
       style="opacity:0.8;fill:#ffffff;fill-opacity:1;stroke:#000000;stroke-width:0.76899999;stroke-linecap:butt;stroke-linejoin:miter;stroke-miterlimit:4;stroke-opacity:1;stroke-dasharray:none"
       d="m 269.16304,414.86947 28.87077,18.6439 6.42895,-32.11726 -12.03317,0.0535 z"
       id="path4162"
       inkscape:connector-curvature="0" />
    <g
       style="fill:#ffffff;stroke:#000000;stroke-width:2.08284402;stroke-miterlimit:4;stroke-opacity:1;stroke-dasharray:none"
       id="g3987"
       transform="matrix(0.3693871,0,0,0.36902641,328.99978,-73.942537)">
      <path
         id="path3900"
         d="m -17.563644,718.12405 c -66.7944,0.50406 -134.019066,29.21668 -181.461816,82.45241 -34.07737,38.3327 -55.78281,90.85788 -57.55068,145.11819 -1.6688,45.17456 9.14426,90.15645 27.43675,130.19695 24.18657,53.1169 53.53294,103.2569 87.01754,149.6003 18.93412,25.7498 39.85242,50.4088 65.492236,67.8459 17.69316,11.7948 38.08227,19.5835 58.86387,18.6804 21.1938797,-0.7236 41.48611,-9.8056 59.26842,-22.3222 29.72628,-20.7912 53.63795,-50.0703 76.104214,-79.7962 29.1018,-38.9346 55.2457,-80.6984 77.4652,-124.972 17.9694,-36.4032 31.0019,-76.6423 33.2371,-118.42213 1.9339,-37.94195 -5.3747,-76.38195 -20.9269,-110.16046 -15.6812,-33.76502 -39.3547,-62.46562 -66.8947,-84.56337 -39.79287,-31.89765 -87.985494,-49.66577 -136.6896043,-53.06169 -7.11332,-0.47812 -14.2350497,-0.73561 -21.3616297,-0.5961 z"
         style="fill:#ffffff;fill-opacity:1;stroke:#000000;stroke-width:2.08284402;stroke-linecap:square;stroke-linejoin:bevel;stroke-miterlimit:4;stroke-opacity:1;stroke-dasharray:none;stroke-dashoffset:0"
         inkscape:connector-curvature="0" />
      <path
         inkscape:connector-curvature="0"
         style="fill:#ffffff;fill-opacity:1;stroke:#000000;stroke-width:2.08284402;stroke-linecap:square;stroke-linejoin:bevel;stroke-miterlimit:4;stroke-opacity:1;stroke-dasharray:none;stroke-dashoffset:0"
         d="m -17.563644,718.12405 c -66.7944,0.50406 -134.019066,29.21668 -181.461816,82.45241 -34.07737,38.3327 -55.78281,90.85788 -57.55068,145.11819 -1.6688,45.17456 9.14426,90.15645 27.43675,130.19695 24.18657,53.1169 53.53294,103.2569 87.01754,149.6003 18.93412,25.7498 39.85242,50.4088 65.492236,67.8459 17.69316,11.7948 38.08227,19.5835 58.86387,18.6804 21.1938797,-0.7236 41.48611,-9.8056 59.26842,-22.3222 29.72628,-20.7912 53.63795,-50.0703 76.104214,-79.7962 29.1018,-38.9346 55.2457,-80.6984 77.4652,-124.972 17.9694,-36.4032 31.0019,-76.6423 33.2371,-118.42213 1.9339,-37.94195 -5.3747,-76.38195 -20.9269,-110.16046 -15.6812,-33.76502 -39.3547,-62.46562 -66.8947,-84.56337 -39.79287,-31.89765 -87.985494,-49.66577 -136.6896043,-53.06169 -7.11332,-0.47812 -14.2350497,-0.73561 -21.3616297,-0.5961 z"
         id="path3912" />
    </g>
    <path
       style="fill:#ffffff;fill-opacity:1;stroke:#000000;stroke-width:0.76899999;stroke-linecap:butt;stroke-linejoin:miter;stroke-miterlimit:4;stroke-opacity:1;stroke-dasharray:none"
       d="m 317.39047,402.97323 -8.44313,15.81544 -5.27696,8.43487 16.88626,0 c 0,0 7.38775,-2.10873 2.11079,-8.43487 -5.27696,-6.32619 -5.27696,-15.81544 -5.27696,-15.81544 z"
       id="path4156"
       inkscape:connector-curvature="0" />
    <g
       style="fill:#ffffff;stroke:#000000;stroke-width:2.08284402;stroke-miterlimit:4;stroke-opacity:1;stroke-dasharray:none"
       id="g4068"
       transform="matrix(0.3693871,0,0,0.36902641,472.54663,19.467352)">
      <path
         id="path3954"
         d="m -1058.767,519.69055 c -46.8744,47.5872 -74.1065,115.4251 -70.0102,186.61553 3.0089,51.20166 24.8018,103.69064 61.9195,143.30854 30.7633,33.12326 70.21625,57.28426 111.46395,72.6625 54.66179,20.4568 110.86713,35.1601 167.31409,44.2527 31.59625,4.81934 63.82425,7.46437 94.28423,1.6642 20.85115,-4.17075 40.77586,-13.0806 54.83209,-28.414 14.47468,-15.49797 22.40149,-36.26873 26.12494,-57.69326 6.31804,-35.72126 2.52271,-73.33279 -2.61061,-110.23821 -6.95282,-48.10898 -17.99777,-96.127 -33.59238,-143.14473 -13.0347,-38.44726 -32.27267,-76.11596 -60.23493,-107.23927 -25.46155,-28.19651 -57.8107,-50.20974 -92.69278,-63.09769 -34.96376,-12.78719 -71.99785,-16.34188 -107.09703,-12.49363 -50.69285,5.58276 -97.33417,27.09615 -134.17447,59.13387 -5.3679,4.6918 -10.5858,9.54555 -15.5264,14.68345 z"
         style="fill:#ffffff;fill-opacity:1;stroke:#000000;stroke-width:2.08284402;stroke-linecap:square;stroke-linejoin:bevel;stroke-miterlimit:4;stroke-opacity:1;stroke-dasharray:none;stroke-dashoffset:0"
         inkscape:connector-curvature="0" />
      <path
         inkscape:connector-curvature="0"
         style="fill:#ffffff;fill-opacity:1;stroke:#000000;stroke-width:2.08284402;stroke-linecap:square;stroke-linejoin:bevel;stroke-miterlimit:4;stroke-opacity:1;stroke-dasharray:none;stroke-dashoffset:0"
         d="m -1058.767,519.69055 c -46.8744,47.5872 -74.1065,115.4251 -70.0102,186.61553 3.0089,51.20166 24.8018,103.69064 61.9195,143.30854 30.7633,33.12326 70.21625,57.28426 111.46395,72.6625 54.66179,20.4568 110.86713,35.1601 167.31409,44.2527 31.59625,4.81934 63.82425,7.46437 94.28423,1.6642 20.85115,-4.17075 40.77586,-13.0806 54.83209,-28.414 14.47468,-15.49797 22.40149,-36.26873 26.12494,-57.69326 6.31804,-35.72126 2.52271,-73.33279 -2.61061,-110.23821 -6.95282,-48.10898 -17.99777,-96.127 -33.59238,-143.14473 -13.0347,-38.44726 -32.27267,-76.11596 -60.23493,-107.23927 -25.46155,-28.19651 -57.8107,-50.20974 -92.69278,-63.09769 -34.96376,-12.78719 -71.99785,-16.34188 -107.09703,-12.49363 -50.69285,5.58276 -97.33417,27.09615 -134.17447,59.13387 -5.3679,4.6918 -10.5858,9.54555 -15.5264,14.68345 z"
         id="path4058" />
    </g>
    <path
       style="fill:#ffffff;fill-opacity:1;stroke:#000000;stroke-width:0.76899999;stroke-linecap:butt;stroke-linejoin:miter;stroke-miterlimit:4;stroke-opacity:1;stroke-dasharray:none"
       d="m 226.64036,374.07723 c 0,0 7.38774,24.25031 3.16617,24.25031 -4.22157,0 6.33235,-17.92414 6.33235,-17.92414 l 6.33235,-1.05436 -1.05539,-9.48925 z"
       id="path4152"
       inkscape:connector-curvature="0" />
    <g
       style="fill:#ffffff;stroke:#000000;stroke-width:1.91290605;stroke-miterlimit:4;stroke-opacity:1;stroke-dasharray:none"
       id="g3995"
       transform="matrix(0.39980894,0,0,0.40421544,395.29699,-25.523657)">
      <path
         id="path2985"
         d="m -231.9375,95.25 c -65.27091,0.439931 -130.96228,25.49954 -177.32292,71.96227 -33.30011,33.45575 -54.51048,79.29833 -56.23803,126.65528 -1.63074,39.42715 8.93569,78.68617 26.81095,113.63245 23.63491,46.35901 52.31193,90.11987 85.03279,130.56716 18.50226,22.47374 38.94345,43.99541 63.99846,59.21409 17.2896,10.29413 37.21366,17.09192 57.52126,16.30375 20.71048,-0.63156 40.53987,-8.5581 57.91659,-19.48223 29.04827,-18.14604 52.41454,-43.70008 74.368371,-69.64402 C -71.412046,490.47768 -45.8644,454.02731 -24.151703,415.38652 -6.5922048,383.61475 6.1430672,348.49515 8.327263,312.03085 10.217079,278.91613 3.0751545,245.36672 -12.122279,215.88574 -27.445798,186.41653 -50.579383,161.36742 -77.491182,142.08109 -116.37645,114.24167 -163.46986,98.734132 -211.0631,95.770261 -218.01417,95.352974 -224.97346,95.128247 -231.9375,95.25 z"
         style="fill:#ffffff;fill-opacity:1;stroke:#000000;stroke-width:1.76658356;stroke-linecap:square;stroke-linejoin:bevel;stroke-miterlimit:4;stroke-opacity:1;stroke-dasharray:none;stroke-dashoffset:0"
         transform="matrix(1.023341,0,0,1.1457729,-37.355347,-16.725117)"
         inkscape:connector-curvature="0" />
      <path
         transform="matrix(1.023341,0,0,1.1457729,12.349785,-13.45148)"
         d="m -259.99999,350.93362 c 0,0.78898 -14.07105,1.42858 -31.42857,1.42858 -17.35752,0 -31.42857,-0.6396 -31.42857,-1.42858 0,-0.78897 14.07105,-1.42857 31.42857,-1.42857 17.35752,0 31.42857,0.6396 31.42857,1.42857 z"
         sodipodi:ry="1.4285715"
         sodipodi:rx="31.428572"
         sodipodi:cy="350.93362"
         sodipodi:cx="-291.42856"
         id="path3757"
         style="fill:#ffffff;fill-opacity:1;stroke:#000000;stroke-width:1.76658356;stroke-linecap:square;stroke-linejoin:bevel;stroke-miterlimit:4;stroke-opacity:1;stroke-dasharray:none;stroke-dashoffset:0"
         sodipodi:type="arc" />
      <path
         transform="matrix(1.023341,0,0,1.1457729,-37.355347,-16.725117)"
         style="fill:#ffffff;fill-opacity:1;stroke:#000000;stroke-width:1.76658356;stroke-linecap:square;stroke-linejoin:bevel;stroke-miterlimit:4;stroke-opacity:1;stroke-dasharray:none;stroke-dashoffset:0"
         d="m -231.9375,95.25 c -65.27091,0.439931 -130.96228,25.49954 -177.32292,71.96227 -33.30011,33.45575 -54.51048,79.29833 -56.23803,126.65528 -1.63074,39.42715 8.93569,78.68617 26.81095,113.63245 23.63491,46.35901 52.31193,90.11987 85.03279,130.56716 18.50226,22.47374 38.94345,43.99541 63.99846,59.21409 17.2896,10.29413 37.21366,17.09192 57.52126,16.30375 20.71048,-0.63156 40.53987,-8.5581 57.91659,-19.48223 29.04827,-18.14604 52.41454,-43.70008 74.368371,-69.64402 C -71.412046,490.47768 -45.8644,454.02731 -24.151703,415.38652 -6.5922048,383.61475 6.1430672,348.49515 8.327263,312.03085 10.217079,278.91613 3.0751545,245.36672 -12.122279,215.88574 -27.445798,186.41653 -50.579383,161.36742 -77.491182,142.08109 -116.37645,114.24167 -163.46986,98.734132 -211.0631,95.770261 -218.01417,95.352974 -224.97346,95.128247 -231.9375,95.25 z"
         id="path3850"
         inkscape:connector-curvature="0" />
      <path
         id="path3860"
         d="m -231.9375,95.25 c -65.27091,0.439931 -130.96228,25.49954 -177.32292,71.96227 -33.30011,33.45575 -54.51048,79.29833 -56.23803,126.65528 -1.63074,39.42715 8.93569,78.68617 26.81095,113.63245 23.63491,46.35901 52.31193,90.11987 85.03279,130.56716 18.50226,22.47374 38.94345,43.99541 63.99846,59.21409 17.2896,10.29413 37.21366,17.09192 57.52126,16.30375 20.71048,-0.63156 40.53987,-8.5581 57.91659,-19.48223 29.04827,-18.14604 52.41454,-43.70008 74.368371,-69.64402 C -71.412046,490.47768 -45.8644,454.02731 -24.151703,415.38652 -6.5922048,383.61475 6.1430672,348.49515 8.327263,312.03085 10.217079,278.91613 3.0751545,245.36672 -12.122279,215.88574 -27.445798,186.41653 -50.579383,161.36742 -77.491182,142.08109 -116.37645,114.24167 -163.46986,98.734132 -211.0631,95.770261 -218.01417,95.352974 -224.97346,95.128247 -231.9375,95.25 z"
         style="fill:#ffffff;fill-opacity:1;stroke:#000000;stroke-width:1.76658356;stroke-linecap:square;stroke-linejoin:bevel;stroke-miterlimit:4;stroke-opacity:1;stroke-dasharray:none;stroke-dashoffset:0"
         transform="matrix(1.023341,0,0,1.1457729,-37.355347,-16.725117)"
         inkscape:connector-curvature="0" />
      <path
         transform="matrix(1.023341,0,0,1.1457729,-37.355347,-16.725117)"
         style="fill:#ffffff;fill-opacity:1;stroke:#000000;stroke-width:1.76658356;stroke-linecap:square;stroke-linejoin:bevel;stroke-miterlimit:4;stroke-opacity:1;stroke-dasharray:none;stroke-dashoffset:0"
         d="m -231.9375,95.25 c -65.27091,0.439931 -130.96228,25.49954 -177.32292,71.96227 -33.30011,33.45575 -54.51048,79.29833 -56.23803,126.65528 -1.63074,39.42715 8.93569,78.68617 26.81095,113.63245 23.63491,46.35901 52.31193,90.11987 85.03279,130.56716 18.50226,22.47374 38.94345,43.99541 63.99846,59.21409 17.2896,10.29413 37.21366,17.09192 57.52126,16.30375 20.71048,-0.63156 40.53987,-8.5581 57.91659,-19.48223 29.04827,-18.14604 52.41454,-43.70008 74.368371,-69.64402 C -71.412046,490.47768 -45.8644,454.02731 -24.151703,415.38652 -6.5922048,383.61475 6.1430672,348.49515 8.327263,312.03085 10.217079,278.91613 3.0751545,245.36672 -12.122279,215.88574 -27.445798,186.41653 -50.579383,161.36742 -77.491182,142.08109 -116.37645,114.24167 -163.46986,98.734132 -211.0631,95.770261 -218.01417,95.352974 -224.97346,95.128247 -231.9375,95.25 z"
         id="path3862"
         inkscape:connector-curvature="0" />
      <path
         id="path3864"
         d="m -231.9375,95.25 c -65.27091,0.439931 -130.96228,25.49954 -177.32292,71.96227 -33.30011,33.45575 -54.51048,79.29833 -56.23803,126.65528 -1.63074,39.42715 8.93569,78.68617 26.81095,113.63245 23.63491,46.35901 52.31193,90.11987 85.03279,130.56716 18.50226,22.47374 38.94345,43.99541 63.99846,59.21409 17.2896,10.29413 37.21366,17.09192 57.52126,16.30375 20.71048,-0.63156 40.53987,-8.5581 57.91659,-19.48223 29.04827,-18.14604 52.41454,-43.70008 74.368371,-69.64402 C -71.412046,490.47768 -45.8644,454.02731 -24.151703,415.38652 -6.5922048,383.61475 6.1430672,348.49515 8.327263,312.03085 10.217079,278.91613 3.0751545,245.36672 -12.122279,215.88574 -27.445798,186.41653 -50.579383,161.36742 -77.491182,142.08109 -116.37645,114.24167 -163.46986,98.734132 -211.0631,95.770261 -218.01417,95.352974 -224.97346,95.128247 -231.9375,95.25 z"
         style="fill:#ffffff;fill-opacity:1;stroke:#000000;stroke-width:1.76658356;stroke-linecap:square;stroke-linejoin:bevel;stroke-miterlimit:4;stroke-opacity:1;stroke-dasharray:none;stroke-dashoffset:0"
         transform="matrix(1.023341,0,0,1.1457729,-37.355347,-16.725117)"
         inkscape:connector-curvature="0" />
    </g>
    <path
       style="fill:#ffffff;stroke:#000000;stroke-width:0.76899999;stroke-linecap:butt;stroke-linejoin:miter;stroke-miterlimit:4;stroke-opacity:1;stroke-dasharray:none"
       d="m 281.06586,252.03003 -13.70773,13.85881 22.84622,-1.1549 2.28462,-4.61961 z"
       id="path4154"
       inkscape:connector-curvature="0" />
    <g
       style="fill:#ffffff;stroke:#000000;stroke-width:2.08284402;stroke-miterlimit:4;stroke-opacity:1;stroke-dasharray:none"
       id="g3970"
       transform="matrix(0.35680054,0.09551106,-0.09560442,0.35645214,328.9845,34.754392)">
      <path
         sodipodi:type="arc"
         style="fill:#ffffff;fill-opacity:1;stroke:#000000;stroke-width:1.92352259;stroke-linecap:square;stroke-linejoin:bevel;stroke-miterlimit:4;stroke-opacity:1;stroke-dasharray:none;stroke-dashoffset:0"
         id="path3779"
         sodipodi:cx="-291.42856"
         sodipodi:cy="350.93362"
         sodipodi:rx="31.428572"
         sodipodi:ry="1.4285715"
         d="m -259.99999,350.93362 c 0,0.78898 -14.07105,1.42858 -31.42857,1.42858 -17.35752,0 -31.42857,-0.6396 -31.42857,-1.42858 0,-0.78897 14.07105,-1.42857 31.42857,-1.42857 17.35752,0 31.42857,0.6396 31.42857,1.42857 z"
         transform="matrix(1.023341,0,0,1.1457729,629.49264,80.834235)" />
      <path
         transform="matrix(1.023341,0,0,1.1457729,552.34978,89.405664)"
         d="m -259.99999,350.93362 c 0,0.78898 -14.07105,1.42858 -31.42857,1.42858 -17.35752,0 -31.42857,-0.6396 -31.42857,-1.42858 0,-0.78897 14.07105,-1.42857 31.42857,-1.42857 17.35752,0 31.42857,0.6396 31.42857,1.42857 z"
         sodipodi:ry="1.4285715"
         sodipodi:rx="31.428572"
         sodipodi:cy="350.93362"
         sodipodi:cx="-291.42856"
         id="path3789"
         style="fill:#ffffff;fill-opacity:1;stroke:#000000;stroke-width:1.92352259;stroke-linecap:square;stroke-linejoin:bevel;stroke-miterlimit:4;stroke-opacity:1;stroke-dasharray:none;stroke-dashoffset:0"
         sodipodi:type="arc" />
      <path
         inkscape:connector-curvature="0"
         style="fill:#ffffff;fill-opacity:1;stroke:#000000;stroke-width:2.08284402;stroke-linecap:square;stroke-linejoin:bevel;stroke-miterlimit:4;stroke-opacity:1;stroke-dasharray:none;stroke-dashoffset:0"
         d="m 382.43636,106.69547 c -66.7944,0.50406 -134.01907,29.21668 -181.46182,82.45241 -34.07737,38.3327 -55.78281,90.85788 -57.55068,145.11819 -1.6688,45.17456 9.14426,90.15648 27.43675,130.19698 24.18657,53.1169 53.53294,103.25691 87.01754,149.60032 18.93412,25.7498 39.85242,50.40875 65.49224,67.8459 17.69316,11.79473 38.08227,19.58346 58.86387,18.68039 21.19388,-0.72362 41.48611,-9.80564 59.26842,-22.32221 29.72628,-20.79124 53.63795,-50.07037 76.1042,-79.79623 29.10176,-38.93459 55.24571,-80.69844 77.4652,-124.97201 17.96936,-36.40323 31.00188,-76.64231 33.23706,-118.42212 1.93393,-37.94195 -5.3747,-76.38195 -20.92685,-110.16046 -15.68119,-33.76502 -39.35474,-62.46562 -66.89468,-84.56337 -39.79289,-31.89765 -87.98551,-49.66577 -136.68962,-53.06169 -7.11332,-0.47812 -14.23505,-0.73561 -21.36163,-0.5961 z"
         id="path3866" />
      <path
         id="path3878"
         d="m 382.43636,106.69547 c -66.7944,0.50406 -134.01907,29.21668 -181.46182,82.45241 -34.07737,38.3327 -55.78281,90.85788 -57.55068,145.11819 -1.6688,45.17456 9.14426,90.15648 27.43675,130.19698 24.18657,53.1169 53.53294,103.25691 87.01754,149.60032 18.93412,25.7498 39.85242,50.40875 65.49224,67.8459 17.69316,11.79473 38.08227,19.58346 58.86387,18.68039 21.19388,-0.72362 41.48611,-9.80564 59.26842,-22.32221 29.72628,-20.79124 53.63795,-50.07037 76.1042,-79.79623 29.10176,-38.93459 55.24571,-80.69844 77.4652,-124.97201 17.96936,-36.40323 31.00188,-76.64231 33.23706,-118.42212 1.93393,-37.94195 -5.3747,-76.38195 -20.92685,-110.16046 -15.68119,-33.76502 -39.35474,-62.46562 -66.89468,-84.56337 -39.79289,-31.89765 -87.98551,-49.66577 -136.68962,-53.06169 -7.11332,-0.47812 -14.23505,-0.73561 -21.36163,-0.5961 z"
         style="fill:#ffffff;fill-opacity:1;stroke:#000000;stroke-width:2.08284402;stroke-linecap:square;stroke-linejoin:bevel;stroke-miterlimit:4;stroke-opacity:1;stroke-dasharray:none;stroke-dashoffset:0"
         inkscape:connector-curvature="0" />
    </g>
    <path
       style="fill:#ffffff;fill-opacity:1;stroke:#000000;stroke-width:0.76899999;stroke-linecap:butt;stroke-linejoin:miter;stroke-miterlimit:4;stroke-opacity:1;stroke-dasharray:none"
       d="m 398.44901,313.49595 -15.93057,18.65824 18.42293,0.56537 4.55085,3.40131 z"
       id="path4158"
       inkscape:connector-curvature="0" />
    <path
       id="path3888"
       d="m 527.70279,223.84084 c -21.46053,-12.16336 -48.26865,-15.39104 -73.27781,-7.13145 -17.98111,5.96288 -34.62571,18.74427 -45.21278,35.75892 -8.8773,14.12925 -13.72609,30.50001 -15.26957,46.6716 -2.0731,21.43818 -1.94577,42.87703 0.20658,63.8661 1.30118,11.72287 3.43856,23.46324 8.42018,33.7668 3.4816,7.03405 8.56552,13.28528 15.38032,16.83115 6.91354,3.6793 15.08238,4.52099 23.08265,3.80194 13.3494,-1.15971 26.40638,-6.10489 39.08348,-11.45955 16.5006,-7.07329 32.57751,-15.59655 47.86254,-25.64598 12.47183,-8.31838 24.0728,-18.77357 32.5043,-31.7134 7.62629,-11.76889 12.3879,-25.40232 13.65144,-39.06706 1.21979,-13.68422 -1.05251,-27.22461 -5.78121,-39.36824 -6.83839,-17.53636 -18.97349,-32.10698 -33.92666,-42.17882 -2.18724,-1.46531 -4.41791,-2.86165 -6.72346,-4.13201 z"
       style="fill:#ffffff;fill-opacity:1;stroke:#000000;stroke-width:0.76899999;stroke-linecap:square;stroke-linejoin:bevel;stroke-miterlimit:4;stroke-opacity:1;stroke-dasharray:none;stroke-dashoffset:0"
       inkscape:connector-curvature="0" />
    <path
       style="fill:#ffffff;fill-opacity:1;stroke:#000000;stroke-width:0.76899999;stroke-linecap:butt;stroke-linejoin:miter;stroke-miterlimit:4;stroke-opacity:1;stroke-dasharray:none"
       d="m 416.47769,399.01615 -29.85624,9.47274 22.08111,11.36861 7.06282,6.25685 z"
       id="path4160"
       inkscape:connector-curvature="0" />
    <path
       transform="matrix(0.35680054,0.09551106,-0.09560442,0.35645214,563.4682,295.01329)"
       sodipodi:type="arc"
       style="fill:#ffffff;fill-opacity:1;stroke:#000000;stroke-width:2.08284402;stroke-linecap:square;stroke-linejoin:bevel;stroke-miterlimit:4;stroke-opacity:1;stroke-dasharray:none;stroke-dashoffset:0;filter:url(#filter4260)"
       id="path4248"
       sodipodi:cx="-318.57144"
       sodipodi:cy="340.93362"
       sodipodi:rx="70"
       sodipodi:ry="57.142857"
       d="m -248.57144,340.93362 a 70,57.142857 0 1 1 -140,0 70,57.142857 0 1 1 140,0 z" />
    <path
       inkscape:connector-curvature="0"
       style="fill:#ffffff;fill-opacity:1;stroke:#000000;stroke-width:0.76899999;stroke-linecap:square;stroke-linejoin:bevel;stroke-miterlimit:4;stroke-opacity:1;stroke-dasharray:none;stroke-dashoffset:0"
       d="m 527.70279,223.84084 c -21.46053,-12.16336 -48.26865,-15.39104 -73.27781,-7.13145 -17.98111,5.96288 -34.62571,18.74427 -45.21278,35.75892 -8.8773,14.12925 -13.72609,30.50001 -15.26957,46.6716 -2.0731,21.43818 -1.94577,42.87703 0.20658,63.8661 1.30118,11.72287 3.43856,23.46324 8.42018,33.7668 3.4816,7.03405 8.56552,13.28528 15.38032,16.83115 6.91354,3.6793 15.08238,4.52099 23.08265,3.80194 13.3494,-1.15971 26.40638,-6.10489 39.08348,-11.45955 16.5006,-7.07329 32.57751,-15.59655 47.86254,-25.64598 12.47183,-8.31838 24.0728,-18.77357 32.5043,-31.7134 7.62629,-11.76889 12.3879,-25.40232 13.65144,-39.06706 1.21979,-13.68422 -1.05251,-27.22461 -5.78121,-39.36824 -6.83839,-17.53636 -18.97349,-32.10698 -33.92666,-42.17882 -2.18724,-1.46531 -4.41791,-2.86165 -6.72346,-4.13201 z"
       id="path4267" />
    <path
       sodipodi:type="arc"
       style="fill:#ffffff;fill-opacity:1;stroke:#000000;stroke-width:1.98340297;stroke-linecap:square;stroke-linejoin:bevel;stroke-miterlimit:4;stroke-opacity:1;stroke-dasharray:none;stroke-dashoffset:0"
       id="path4476"
       sodipodi:cx="-855.71429"
       sodipodi:cy="543.79077"
       sodipodi:rx="101.42857"
       sodipodi:ry="134.28572"
       d="m -754.28572,543.79077 a 101.42857,134.28572 0 1 1 -202.85715,0 101.42857,134.28572 0 1 1 202.85715,0 z"
       transform="matrix(-0.23544439,-0.23521449,-0.31954843,0.3192364,440.66824,-136.7374)" />
    <g
       style="fill:#ffffff;fill-opacity:1;stroke:#000000;stroke-width:2.08284402;stroke-miterlimit:4;stroke-opacity:1;stroke-dasharray:none"
       transform="matrix(0.35680054,0.09551106,-0.09560442,0.35645214,328.9845,34.754392)"
       id="g4482">
      <path
         transform="matrix(1.023341,0,0,1.1457729,629.49264,80.834235)"
         d="m -259.99999,350.93362 c 0,0.78898 -14.07105,1.42858 -31.42857,1.42858 -17.35752,0 -31.42857,-0.6396 -31.42857,-1.42858 0,-0.78897 14.07105,-1.42857 31.42857,-1.42857 17.35752,0 31.42857,0.6396 31.42857,1.42857 z"
         sodipodi:ry="1.4285715"
         sodipodi:rx="31.428572"
         sodipodi:cy="350.93362"
         sodipodi:cx="-291.42856"
         id="path4484"
         style="fill:#ffffff;fill-opacity:1;stroke:#000000;stroke-width:1.92352259;stroke-linecap:square;stroke-linejoin:bevel;stroke-miterlimit:4;stroke-opacity:1;stroke-dasharray:none;stroke-dashoffset:0"
         sodipodi:type="arc" />
      <path
         sodipodi:type="arc"
         style="fill:#ffffff;fill-opacity:1;stroke:#000000;stroke-width:1.92352259;stroke-linecap:square;stroke-linejoin:bevel;stroke-miterlimit:4;stroke-opacity:1;stroke-dasharray:none;stroke-dashoffset:0"
         id="path4486"
         sodipodi:cx="-291.42856"
         sodipodi:cy="350.93362"
         sodipodi:rx="31.428572"
         sodipodi:ry="1.4285715"
         d="m -259.99999,350.93362 c 0,0.78898 -14.07105,1.42858 -31.42857,1.42858 -17.35752,0 -31.42857,-0.6396 -31.42857,-1.42858 0,-0.78897 14.07105,-1.42857 31.42857,-1.42857 17.35752,0 31.42857,0.6396 31.42857,1.42857 z"
         transform="matrix(1.023341,0,0,1.1457729,552.34978,89.405664)" />
      <path
         id="path4488"
         d="m 382.43636,106.69547 c -66.7944,0.50406 -134.01907,29.21668 -181.46182,82.45241 -34.07737,38.3327 -55.78281,90.85788 -57.55068,145.11819 -1.6688,45.17456 9.14426,90.15648 27.43675,130.19698 24.18657,53.1169 53.53294,103.25691 87.01754,149.60032 18.93412,25.7498 39.85242,50.40875 65.49224,67.8459 17.69316,11.79473 38.08227,19.58346 58.86387,18.68039 21.19388,-0.72362 41.48611,-9.80564 59.26842,-22.32221 29.72628,-20.79124 53.63795,-50.07037 76.1042,-79.79623 29.10176,-38.93459 55.24571,-80.69844 77.4652,-124.97201 17.96936,-36.40323 31.00188,-76.64231 33.23706,-118.42212 1.93393,-37.94195 -5.3747,-76.38195 -20.92685,-110.16046 -15.68119,-33.76502 -39.35474,-62.46562 -66.89468,-84.56337 -39.79289,-31.89765 -87.98551,-49.66577 -136.68962,-53.06169 -7.11332,-0.47812 -14.23505,-0.73561 -21.36163,-0.5961 z"
         style="fill:#ffffff;fill-opacity:1;stroke:#000000;stroke-width:2.08284402;stroke-linecap:square;stroke-linejoin:bevel;stroke-miterlimit:4;stroke-opacity:1;stroke-dasharray:none;stroke-dashoffset:0"
         inkscape:connector-curvature="0" />
      <path
         inkscape:connector-curvature="0"
         style="fill:#ffffff;fill-opacity:1;stroke:#000000;stroke-width:2.08284402;stroke-linecap:square;stroke-linejoin:bevel;stroke-miterlimit:4;stroke-opacity:1;stroke-dasharray:none;stroke-dashoffset:0"
         d="m 382.43636,106.69547 c -66.7944,0.50406 -134.01907,29.21668 -181.46182,82.45241 -34.07737,38.3327 -55.78281,90.85788 -57.55068,145.11819 -1.6688,45.17456 9.14426,90.15648 27.43675,130.19698 24.18657,53.1169 53.53294,103.25691 87.01754,149.60032 18.93412,25.7498 39.85242,50.40875 65.49224,67.8459 17.69316,11.79473 38.08227,19.58346 58.86387,18.68039 21.19388,-0.72362 41.48611,-9.80564 59.26842,-22.32221 29.72628,-20.79124 53.63795,-50.07037 76.1042,-79.79623 29.10176,-38.93459 55.24571,-80.69844 77.4652,-124.97201 17.96936,-36.40323 31.00188,-76.64231 33.23706,-118.42212 1.93393,-37.94195 -5.3747,-76.38195 -20.92685,-110.16046 -15.68119,-33.76502 -39.35474,-62.46562 -66.89468,-84.56337 -39.79289,-31.89765 -87.98551,-49.66577 -136.68962,-53.06169 -7.11332,-0.47812 -14.23505,-0.73561 -21.36163,-0.5961 z"
         id="path4490" />
    </g>
    <path
       inkscape:connector-curvature="0"
       id="path4492"
       d="m 398.44901,313.49595 -15.93057,18.65824 18.42293,0.56537 4.55085,3.40131 z"
       style="fill:#ffffff;fill-opacity:1;stroke:#000000;stroke-width:0.76899999;stroke-linecap:butt;stroke-linejoin:miter;stroke-miterlimit:4;stroke-opacity:1;stroke-dasharray:none" />
    <path
       sodipodi:nodetypes="csc"
       style="fill:#ffffff;stroke:#000000;stroke-width:0.76899999;stroke-linecap:butt;stroke-linejoin:miter;stroke-miterlimit:4;stroke-opacity:1;stroke-dasharray:none"
       d="m 235.06991,374.50549 c 5.27697,0 99.20683,64.31603 104.48378,87.51197 5.27696,23.19593 1.24829,2.58838 1.24829,2.58838"
       id="path4514"
       inkscape:connector-curvature="0" />
    <path
       sodipodi:nodetypes="ccc"
       style="fill:#ffffff;stroke:#000000;stroke-width:0.76899999;stroke-linecap:butt;stroke-linejoin:miter;stroke-miterlimit:4;stroke-opacity:1;stroke-dasharray:none"
       d="m 293.11646,426.16918 44.32645,30.57648 2.30368,7.86974"
       id="path4516"
       inkscape:connector-curvature="0" />
    <path
       sodipodi:nodetypes="ccc"
       style="fill:#ffffff;stroke:#000000;stroke-width:0.76899999;stroke-linecap:butt;stroke-linejoin:miter;stroke-miterlimit:4;stroke-opacity:1;stroke-dasharray:none"
       d="m 316.33508,414.57121 18.99705,36.90264 3.35907,13.4962"
       id="path4518"
       inkscape:connector-curvature="0" />
    <path
       sodipodi:nodetypes="ccc"
       style="fill:#ffffff;stroke:#000000;stroke-width:0.76899999;stroke-linecap:butt;stroke-linejoin:miter;stroke-miterlimit:4;stroke-opacity:1;stroke-dasharray:none"
       d="m 285.72872,258.52576 54.88037,192.94809 9.62712,15.25027"
       id="path4520"
       inkscape:connector-curvature="0" />
    <path
       sodipodi:nodetypes="ccc"
       style="fill:#ffffff;stroke:#000000;stroke-width:0.76899999;stroke-linecap:butt;stroke-linejoin:miter;stroke-miterlimit:4;stroke-opacity:1;stroke-dasharray:none"
       d="m 407.09876,334.43976 -65.43428,117.03409 5.87624,14.19593"
       id="path4522"
       inkscape:connector-curvature="0" />
    <path
       sodipodi:nodetypes="ccc"
       style="fill:#ffffff;stroke:#000000;stroke-width:0.76899999;stroke-linecap:butt;stroke-linejoin:miter;stroke-miterlimit:4;stroke-opacity:1;stroke-dasharray:none"
       d="m 403.93259,409.2994 c -5.27696,3.16309 -62.26811,44.28317 -62.26811,44.28317 l 7.80869,19.48685"
       id="path4524"
       inkscape:connector-curvature="0" />
    <path
       style="fill:#ffffff;stroke:#000000;stroke-width:0.76899999;stroke-linecap:butt;stroke-linejoin:miter;stroke-miterlimit:4;stroke-opacity:1;stroke-dasharray:none"
       d="m 341.66448,449.36513 -14.77549,7.38053 z"
       id="path4526"
       inkscape:connector-curvature="0" />
  </g>
</svg>
